<svg xmlns='http://www.w3.org/2000/svg' font-family="Inter" font-size="0.5" font-weight="700" viewBox="0 0 800 501.4925" width="800"><defs><clipPath id="board-clip"><rect height="9" width="15" x="1.5" y="1.5"/></clipPath><marker id="linehead" markerHeight="4" markerWidth="4" refX="2" refY="2"><circle cx="2" cy="2" r="2"/></marker><marker id="arrowhead" markerHeight="5" markerWidth="7" orient="auto" refX="7" refY="2.5"><polygon points="0 0, 7 2.5, 0 5"/></marker></defs><rect fill="#cfa87e" height="100%" width="100%" x="0" y="0"/><g id="diagram" transform="scale(49.7512, 49.7512)"><g id="board-view" transform="translate(-0.56, -0.56)"><g clip-path="url(#board-clip)" id="goban"><g id="lines" stroke="black" stroke-linecap="square" stroke-width="0.03"><line x1="0" x2="0" y1="0" y2="18"/><line x1="1" x2="1" y1="0" y2="18"/><line x1="2" x2="2" y1="0" y2="18"/><line x1="3" x2="3" y1="0" y2="18"/><line x1="4" x2="4" y1="0" y2="18"/><line x1="5" x2="5" y1="0" y2="18"/><line x1="6" x2="6" y1="0" y2="18"/><line x1="7" x2="7" y1="0" y2="18"/><line x1="8" x2="8" y1="0" y2="18"/><line x1="9" x2="9" y1="0" y2="18"/><line x1="10" x2="10" y1="0" y2="18"/><line x1="11" x2="11" y1="0" y2="18"/><line x1="12" x2="12" y1="0" y2="18"/><line x1="13" x2="13" y1="0" y2="18"/><line x1="14" x2="14" y1="0" y2="18"/><line x1="15" x2="15" y1="0" y2="18"/><line x1="16" x2="16" y1="0" y2="18"/><line x1="17" x2="17" y1="0" y2="18"/><line x1="18" x2="18" y1="0" y2="18"/><line x1="0" x2="18" y1="0" y2="0"/><line x1="0" x2="18" y1="1" y2="1"/><line x1="0" x2="18" y1="2" y2="2"/><line x1="0" x2="18" y1="3" y2="3"/><line x1="0" x2="18" y1="4" y2="4"/><line x1="0" x2="18" y1="5" y2="5"/><line x1="0" x2="18" y1="6" y2="6"/><line x1="0" x2="18" y1="7" y2="7"/><line x1="0" x2="18" y1="8" y2="8"/><line x1="0" x2="18" y1="9" y2="9"/><line x1="0" x2="18" y1="10" y2="10"/><line x1="0" x2="18" y1="11" y2="11"/><line x1="0" x2="18" y1="12" y2="12"/><line x1="0" x2="18" y1="13" y2="13"/><line x1="0" x2="18" y1="14" y2="14"/><line x1="0" x2="18" y1="15" y2="15"/><line x1="0" x2="18" y1="16" y2="16"/><line x1="0" x2="18" y1="17" y2="17"/><line x1="0" x2="18" y1="18" y2="18"/><g fill="black" id="hoshi" stroke="none"><circle cx="3" cy="3" r="0.09"/><circle cx="3" cy="9" r="0.09"/><circle cx="3" cy="15" r="0.09"/><circle cx="9" cy="3" r="0.09"/><circle cx="9" cy="9" r="0.09"/><circle cx="9" cy="15" r="0.09"/><circle cx="15" cy="3" r="0.09"/><circle cx="15" cy="9" r="0.09"/><circle cx="15" cy="15" r="0.09"/></g></g><g id="stones" stroke="none"><circle cx="3" cy="3" fill="black" r="0.48" stroke="black" stroke-width="0.03"/><circle cx="5" cy="3" fill="white" r="0.48" stroke="black" stroke-width="0.03"/><circle cx="13" cy="3" fill="black" r="0.48" stroke="black" stroke-width="0.03"/><circle cx="15" cy="3" fill="white" r="0.48" stroke="black" stroke-width="0.03"/><circle cx="3" cy="4" fill="black" r="0.48" stroke="black" stroke-width="0.03"/><circle cx="5" cy="4" fill="white" r="0.48" stroke="black" stroke-width="0.03"/><circle cx="13" cy="4" fill="black" r="0.48" stroke="black" stroke-width="0.03"/><circle cx="15" cy="4" fill="white" r="0.48" stroke="black" stroke-width="0.03"/><circle cx="3" cy="5" fill="black" r="0.48" stroke="black" stroke-width="0.03"/><circle cx="5" cy="5" fill="white" r="0.48" stroke="black" stroke-width="0.03"/><circle cx="13" cy="5" fill="black" r="0.48" stroke="black" stroke-width="0.03"/><circle cx="15" cy="5" fill="white" r="0.48" stroke="black" stroke-width="0.03"/><circle cx="3" cy="6" fill="black" r="0.48" stroke="black" stroke-width="0.03"/><circle cx="15" cy="6" fill="white" r="0.48" stroke="black" stroke-width="0.03"/><circle cx="3" cy="7" fill="black" r="0.48" stroke="black" stroke-width="0.03"/><circle cx="5" cy="7" fill="white" r="0.48" stroke="black" stroke-width="0.03"/><circle cx="8" cy="7" fill="black" r="0.48" stroke="black" stroke-width="0.03"/><circle cx="10" cy="7" fill="white" r="0.48" stroke="black" stroke-width="0.03"/><circle cx="13" cy="7" fill="black" r="0.48" stroke="black" stroke-width="0.03"/><circle cx="15" cy="7" fill="white" r="0.48" stroke="black" stroke-width="0.03"/><circle cx="3" cy="8" fill="black" r="0.48" stroke="black" stroke-width="0.03"/><circle cx="5" cy="8" fill="white" r="0.48" stroke="black" stroke-width="0.03"/><circle cx="8" cy="8" fill="black" r="0.48" stroke="black" stroke-width="0.03"/><circle cx="10" cy="8" fill="white" r="0.48" stroke="black" stroke-width="0.03"/><circle cx="13" cy="8" fill="black" r="0.48" stroke="black" stroke-width="0.03"/><circle cx="15" cy="8" fill="white" r="0.48" stroke="black" stroke-width="0.03"/><circle cx="3" cy="9" fill="black" r="0.48" stroke="black" stroke-width="0.03"/><circle cx="5" cy="9" fill="white" r="0.48" stroke="black" stroke-width="0.03"/><circle cx="8" cy="9" fill="black" r="0.48" stroke="black" stroke-width="0.03"/><circle cx="10" cy="9" fill="white" r="0.48" stroke="black" stroke-width="0.03"/><circle cx="13" cy="9" fill="black" r="0.48" stroke="black" stroke-width="0.03"/><circle cx="15" cy="9" fill="white" r="0.48" stroke="black" stroke-width="0.03"/><circle cx="0" cy="13" fill="black" r="0.48" stroke="black" stroke-width="0.03"/><circle cx="1" cy="13" fill="black" r="0.48" stroke="black" stroke-width="0.03"/><circle cx="17" cy="13" fill="white" r="0.48" stroke="black" stroke-width="0.03"/><circle cx="18" cy="13" fill="white" r="0.48" stroke="black" stroke-width="0.03"/><circle cx="1" cy="14" fill="black" r="0.48" stroke="black" stroke-width="0.03"/><circle cx="17" cy="14" fill="white" r="0.48" stroke="black" stroke-width="0.03"/><circle cx="0" cy="15" fill="black" r="0.48" stroke="black" stroke-width="0.03"/><circle cx="1" cy="15" fill="black" r="0.48" stroke="black" stroke-width="0.03"/><circle cx="2" cy="15" fill="black" r="0.48" stroke="black" stroke-width="0.03"/><circle cx="3" cy="15" fill="black" r="0.48" stroke="black" stroke-width="0.03"/><circle cx="14" cy="15" fill="white" r="0.48" stroke="black" stroke-width="0.03"/><circle cx="15" cy="15" fill="white" r="0.48" stroke="black" stroke-width="0.03"/><circle cx="16" cy="15" fill="white" r="0.48" stroke="black" stroke-width="0.03"/><circle cx="17" cy="15" fill="white" r="0.48" stroke="black" stroke-width="0.03"/><circle cx="18" cy="15" fill="white" r="0.48" stroke="black" stroke-width="0.03"/><circle cx="3" cy="16" fill="black" r="0.48" stroke="black" stroke-width="0.03"/><circle cx="4" cy="16" fill="black" r="0.48" stroke="black" stroke-width="0.03"/><circle cx="5" cy="16" fill="black" r="0.48" stroke="black" stroke-width="0.03"/><circle cx="6" cy="16" fill="black" r="0.48" stroke="black" stroke-width="0.03"/><circle cx="7" cy="16" fill="black" r="0.48" stroke="black" stroke-width="0.03"/><circle cx="8" cy="16" fill="black" r="0.48" stroke="black" stroke-width="0.03"/><circle cx="10" cy="16" fill="white" r="0.48" stroke="black" stroke-width="0.03"/><circle cx="11" cy="16" fill="white" r="0.48" stroke="black" stroke-width="0.03"/><circle cx="12" cy="16" fill="white" r="0.48" stroke="black" stroke-width="0.03"/><circle cx="13" cy="16" fill="white" r="0.48" stroke="black" stroke-width="0.03"/><circle cx="14" cy="16" fill="white" r="0.48" stroke="black" stroke-width="0.03"/><circle cx="3" cy="17" fill="black" r="0.48" stroke="black" stroke-width="0.03"/><circle cx="4" cy="17" fill="white" r="0.48" stroke="black" stroke-width="0.03"/><circle cx="6" cy="17" fill="white" r="0.48" stroke="black" stroke-width="0.03"/><circle cx="8" cy="17" fill="black" r="0.48" stroke="black" stroke-width="0.03"/><circle cx="10" cy="17" fill="white" r="0.48" stroke="black" stroke-width="0.03"/><circle cx="12" cy="17" fill="black" r="0.48" stroke="black" stroke-width="0.03"/><circle cx="14" cy="17" fill="white" r="0.48" stroke="black" stroke-width="0.03"/><circle cx="3" cy="18" fill="black" r="0.48" stroke="black" stroke-width="0.03"/><circle cx="5" cy="18" fill="white" r="0.48" stroke="black" stroke-width="0.03"/><circle cx="6" cy="18" fill="white" r="0.48" stroke="black" stroke-width="0.03"/><circle cx="8" cy="18" fill="black" r="0.48" stroke="black" stroke-width="0.03"/><circle cx="10" cy="18" fill="white" r="0.48" stroke="black" stroke-width="0.03"/><circle cx="12" cy="18" fill="black" r="0.48" stroke="black" stroke-width="0.03"/><circle cx="14" cy="18" fill="white" r="0.48" stroke="black" stroke-width="0.03"/></g><g id="markup-marks"><g stroke="white" stroke-width="0.1"><line x1="2.75" x2="3.25" y1="6.75" y2="7.25"/><line x1="2.75" x2="3.25" y1="7.25" y2="6.75"/></g><g stroke="white" stroke-width="0.1"><line x1="2.75" x2="3.25" y1="7.75" y2="8.25"/><line x1="2.75" x2="3.25" y1="8.25" y2="7.75"/></g><g stroke="white" stroke-width="0.1"><line x1="2.75" x2="3.25" y1="8.75" y2="9.25"/><line x1="2.75" x2="3.25" y1="9.25" y2="8.75"/></g><g stroke="black" stroke-width="0.1"><line x1="3.75" x2="4.25" y1="6.75" y2="7.25"/><line x1="3.75" x2="4.25" y1="7.25" y2="6.75"/></g><g stroke="black" stroke-width="0.1"><line x1="3.75" x2="4.25" y1="7.75" y2="8.25"/><line x1="3.75" x2="4.25" y1="8.25" y2="7.75"/></g><g stroke="black" stroke-width="0.1"><line x1="3.75" x2="4.25" y1="8.75" y2="9.25"/><line x1="3.75" x2="4.25" y1="9.25" y2="8.75"/></g><g stroke="black" stroke-width="0.1"><line x1="4.75" x2="5.25" y1="6.75" y2="7.25"/><line x1="4.75" x2="5.25" y1="7.25" y2="6.75"/></g><g stroke="black" stroke-width="0.1"><line x1="4.75" x2="5.25" y1="7.75" y2="8.25"/><line x1="4.75" x2="5.25" y1="8.25" y2="7.75"/></g><g stroke="black" stroke-width="0.1"><line x1="4.75" x2="5.25" y1="8.75" y2="9.25"/><line x1="4.75" x2="5.25" y1="9.25" y2="8.75"/></g></g><g id="markup-triangles"><g fill="none" stroke="white" stroke-width="0.03"><polygon points="3,2.55 2.6103,3.225 3.3897,3.225"/></g><g fill="none" stroke="white" stroke-width="0.03"><polygon points="3,3.55 2.6103,4.225 3.3897,4.225"/></g><g fill="none" stroke="white" stroke-width="0.03"><polygon points="3,4.55 2.6103,5.225 3.3897,5.225"/></g><g fill="none" stroke="black" stroke-width="0.03"><polygon points="4,2.55 3.6103,3.225 4.3897,3.225"/></g><g fill="none" stroke="black" stroke-width="0.03"><polygon points="4,3.55 3.6103,4.225 4.3897,4.225"/></g><g fill="none" stroke="black" stroke-width="0.03"><polygon points="4,4.55 3.6103,5.225 4.3897,5.225"/></g><g fill="none" stroke="black" stroke-width="0.03"><polygon points="5,2.55 4.6103,3.225 5.3897,3.225"/></g><g fill="none" stroke="black" stroke-width="0.03"><polygon points="5,3.55 4.6103,4.225 5.3897,4.225"/></g><g fill="none" stroke="black" stroke-width="0.03"><polygon points="5,4.55 4.6103,5.225 5.3897,5.225"/></g></g><g id="markup-circles"><g fill="none" stroke="white" stroke-width="0.03"><circle cx="13" cy="3" r="0.25"/></g><g fill="none" stroke="white" stroke-width="0.03"><circle cx="13" cy="4" r="0.25"/></g><g fill="none" stroke="white" stroke-width="0.03"><circle cx="13" cy="5" r="0.25"/></g><g fill="none" stroke="black" stroke-width="0.03"><circle cx="14" cy="3" r="0.25"/></g><g fill="none" stroke="black" stroke-width="0.03"><circle cx="14" cy="4" r="0.25"/></g><g fill="none" stroke="black" stroke-width="0.03"><circle cx="14" cy="5" r="0.25"/></g><g fill="none" stroke="black" stroke-width="0.03"><circle cx="15" cy="3" r="0.25"/></g><g fill="none" stroke="black" stroke-width="0.03"><circle cx="15" cy="4" r="0.25"/></g><g fill="none" stroke="black" stroke-width="0.03"><circle cx="15" cy="5" r="0.25"/></g></g><g id="markup-squares"><g fill="none" stroke="white" stroke-width="0.03"><rect height="0.55" width="0.55" x="12.725" y="6.725"/></g><g fill="none" stroke="white" stroke-width="0.03"><rect height="0.55" width="0.55" x="12.725" y="7.725"/></g><g fill="none" stroke="white" stroke-width="0.03"><rect height="0.55" width="0.55" x="12.725" y="8.725"/></g><g fill="none" stroke="black" stroke-width="0.03"><rect height="0.55" width="0.55" x="13.725" y="6.725"/></g><g fill="none" stroke="black" stroke-width="0.03"><rect height="0.55" width="0.55" x="13.725" y="7.725"/></g><g fill="none" stroke="black" stroke-width="0.03"><rect height="0.55" width="0.55" x="13.725" y="8.725"/></g><g fill="none" stroke="black" stroke-width="0.03"><rect height="0.55" width="0.55" x="14.725" y="6.725"/></g><g fill="none" stroke="black" stroke-width="0.03"><rect height="0.55" width="0.55" x="14.725" y="7.725"/></g><g fill="none" stroke="black" stroke-width="0.03"><rect height="0.55" width="0.55" x="14.725" y="8.725"/></g></g><g id="markup-selected"><g fill="blue" stroke="none" stroke-width="0.03"><rect height="0.25" width="0.25" x="7.875" y="6.875"/></g><g fill="blue" stroke="none" stroke-width="0.03"><rect height="0.25" width="0.25" x="7.875" y="7.875"/></g><g fill="blue" stroke="none" stroke-width="0.03"><rect height="0.25" width="0.25" x="7.875" y="8.875"/></g><g fill="blue" stroke="none" stroke-width="0.03"><rect height="0.25" width="0.25" x="8.875" y="6.875"/></g><g fill="blue" stroke="none" stroke-width="0.03"><rect height="0.25" width="0.25" x="8.875" y="7.875"/></g><g fill="blue" stroke="none" stroke-width="0.03"><rect height="0.25" width="0.25" x="8.875" y="8.875"/></g><g fill="blue" stroke="none" stroke-width="0.03"><rect height="0.25" width="0.25" x="9.875" y="6.875"/></g><g fill="blue" stroke="none" stroke-width="0.03"><rect height="0.25" width="0.25" x="9.875" y="7.875"/></g><g fill="blue" stroke="none" stroke-width="0.03"><rect height="0.25" width="0.25" x="9.875" y="8.875"/></g></g><g id="markup-dimmed"/><g id="markup-labels"/><g id="markup-lines" marker-end="url(#linehead)" marker-start="url(#linehead)" stroke="black" stroke-width="0.03"/><g id="markup-arrows" marker-end="url(#arrowhead)" stroke="black" stroke-width="0.03"/></g></g><g fill="#6e5840" id="board-labels" transform="translate(0.8, 0.8)"><g text-anchor="middle"><text x="0.64" y="0">C</text><text x="1.64" y="0">D</text><text x="2.64" y="0">E</text><text x="3.64" y="0">F</text><text x="4.64" y="0">G</text><text x="5.64" y="0">H</text><text x="6.64" y="0">J</text><text x="7.64" y="0">K</text><text x="8.64" y="0">L</text><text x="9.64" y="0">M</text><text x="10.64" y="0">N</text><text x="11.64" y="0">O</text><text x="12.64" y="0">P</text><text x="13.64" y="0">Q</text><text x="14.64" y="0">R</text></g><g text-anchor="end"><text dy="0.35em" x="0" y="8.64">9</text><text dy="0.35em" x="0" y="7.64">10</text><text dy="0.35em" x="0" y="6.64">11</text><text dy="0.35em" x="0" y="5.64">12</text><text dy="0.35em" x="0" y="4.64">13</text><text dy="0.35em" x="0" y="3.64">14</text><text dy="0.35em" x="0" y="2.64">15</text><text dy="0.35em" x="0" y="1.64">16</text><text dy="0.35em" x="0" y="0.64">17</text></g></g></g></svg>