<svg font-family="Roboto" font-size="0.5" font-weight="700" viewBox="0 0 400 350.4950495049505" width="400" xmlns="http://www.w3.org/2000/svg">
<defs>
<clipPath id="board-clip">
<rect height="6" width="7" x="-0.5" y="-0.5"/>
</clipPath>
<marker id="linehead" markerHeight="4" markerWidth="4" refX="2" refY="2">
<circle cx="2" cy="2" r="2"/>
</marker>
<marker id="arrowhead" markerHeight="5" markerWidth="7" orient="auto" refX="7" refY="2.5">
<polygon points="0 0, 7 2.5, 0 5"/>
</marker>
<radialGradient cx="35%" cy="35%" id="black-stone-fill">
<stop offset="0%" stop-color="#666"/>
<stop offset="100%" stop-color="black"/>
</radialGradient>
<radialGradient cx="35%" cy="35%" id="white-stone-fill">
<stop offset="0%" stop-color="#eee"/>
<stop offset="30%" stop-color="#ddd"/>
<stop offset="100%" stop-color="#bbb"/>
</radialGradient>
</defs>
<rect fill="#cfa87e" height="100%" width="100%" x="0" y="0"/>
<g id="diagram" transform="scale(49.504950495049506, 49.504950495049506)">
<g id="board-view" transform="translate(1.44, 1.44)">
<g clip-path="url(#board-clip)" id="goban">
<g id="lines" stroke="black" stroke-linecap="square" stroke-width="0.03">
<line x1="0" x2="0" y1="0" y2="18"/>
<line x1="1" x2="1" y1="0" y2="18"/>
<line x1="2" x2="2" y1="0" y2="18"/>
<line x1="3" x2="3" y1="0" y2="18"/>
<line x1="4" x2="4" y1="0" y2="18"/>
<line x1="5" x2="5" y1="0" y2="18"/>
<line x1="6" x2="6" y1="0" y2="18"/>
<line x1="7" x2="7" y1="0" y2="18"/>
<line x1="8" x2="8" y1="0" y2="18"/>
<line x1="9" x2="9" y1="0" y2="18"/>
<line x1="10" x2="10" y1="0" y2="18"/>
<line x1="11" x2="11" y1="0" y2="18"/>
<line x1="12" x2="12" y1="0" y2="18"/>
<line x1="13" x2="13" y1="0" y2="18"/>
<line x1="14" x2="14" y1="0" y2="18"/>
<line x1="15" x2="15" y1="0" y2="18"/>
<line x1="16" x2="16" y1="0" y2="18"/>
<line x1="17" x2="17" y1="0" y2="18"/>
<line x1="18" x2="18" y1="0" y2="18"/>
<line x1="0" x2="18" y1="0" y2="0"/>
<line x1="0" x2="18" y1="1" y2="1"/>
<line x1="0" x2="18" y1="2" y2="2"/>
<line x1="0" x2="18" y1="3" y2="3"/>
<line x1="0" x2="18" y1="4" y2="4"/>
<line x1="0" x2="18" y1="5" y2="5"/>
<line x1="0" x2="18" y1="6" y2="6"/>
<line x1="0" x2="18" y1="7" y2="7"/>
<line x1="0" x2="18" y1="8" y2="8"/>
<line x1="0" x2="18" y1="9" y2="9"/>
<line x1="0" x2="18" y1="10" y2="10"/>
<line x1="0" x2="18" y1="11" y2="11"/>
<line x1="0" x2="18" y1="12" y2="12"/>
<line x1="0" x2="18" y1="13" y2="13"/>
<line x1="0" x2="18" y1="14" y2="14"/>
<line x1="0" x2="18" y1="15" y2="15"/>
<line x1="0" x2="18" y1="16" y2="16"/>
<line x1="0" x2="18" y1="17" y2="17"/>
<line x1="0" x2="18" y1="18" y2="18"/>
<g fill="black" id="hoshi" stroke="none">
<circle cx="3" cy="3" r="0.09"/>
<circle cx="3" cy="9" r="0.09"/>
<circle cx="3" cy="15" r="0.09"/>
<circle cx="9" cy="3" r="0.09"/>
<circle cx="9" cy="9" r="0.09"/>
<circle cx="9" cy="15" r="0.09"/>
<circle cx="15" cy="3" r="0.09"/>
<circle cx="15" cy="9" r="0.09"/>
<circle cx="15" cy="15" r="0.09"/>
</g>
</g>
<g id="stones" stroke="none">
<g>
<circle cx="5.025" cy="1.025" fill="black" fill-opacity="0.5" r="0.475"/>
<circle cx="4.983" cy="0.983" fill="url(#white-stone-fill)" r="0.475"/>
</g>
<g>
<circle cx="0.025" cy="1.025" fill="black" fill-opacity="0.5" r="0.475"/>
<circle cx="-0.017" cy="0.983" fill="url(#black-stone-fill)" r="0.475"/>
</g>
<g>
<circle cx="4.025" cy="2.025" fill="black" fill-opacity="0.5" r="0.475"/>
<circle cx="3.983" cy="1.983" fill="url(#white-stone-fill)" r="0.475"/>
</g>
<g>
<circle cx="2.025" cy="3.025" fill="black" fill-opacity="0.5" r="0.475"/>
<circle cx="1.983" cy="2.983" fill="url(#black-stone-fill)" r="0.475"/>
</g>
<g>
<circle cx="1.025" cy="4.025" fill="black" fill-opacity="0.5" r="0.475"/>
<circle cx="0.983" cy="3.983" fill="url(#white-stone-fill)" r="0.475"/>
</g>
<g>
<circle cx="4.025" cy="1.025" fill="black" fill-opacity="0.5" r="0.475"/>
<circle cx="3.983" cy="0.983" fill="url(#black-stone-fill)" r="0.475"/>
</g>
<g>
<circle cx="3.025" cy="2.025" fill="black" fill-opacity="0.5" r="0.475"/>
<circle cx="2.983" cy="1.983" fill="url(#white-stone-fill)" r="0.475"/>
</g>
<g>
<circle cx="0.025" cy="3.025" fill="black" fill-opacity="0.5" r="0.475"/>
<circle cx="-0.017" cy="2.983" fill="url(#white-stone-fill)" r="0.475"/>
</g>
<g>
<circle cx="1.025" cy="1.025" fill="black" fill-opacity="0.5" r="0.475"/>
<circle cx="0.983" cy="0.983" fill="url(#black-stone-fill)" r="0.475"/>
</g>
<g>
<circle cx="2.025" cy="4.025" fill="black" fill-opacity="0.5" r="0.475"/>
<circle cx="1.983" cy="3.983" fill="url(#white-stone-fill)" r="0.475"/>
</g>
<g>
<circle cx="2.025" cy="1.025" fill="black" fill-opacity="0.5" r="0.475"/>
<circle cx="1.983" cy="0.983" fill="url(#white-stone-fill)" r="0.475"/>
</g>
<g>
<circle cx="3.025" cy="3.025" fill="black" fill-opacity="0.5" r="0.475"/>
<circle cx="2.983" cy="2.983" fill="url(#white-stone-fill)" r="0.475"/>
</g>
<g>
<circle cx="5.025" cy="0.025" fill="black" fill-opacity="0.5" r="0.475"/>
<circle cx="4.983" cy="-0.017" fill="url(#white-stone-fill)" r="0.475"/>
</g>
<g>
<circle cx="5.025" cy="2.025" fill="black" fill-opacity="0.5" r="0.475"/>
<circle cx="4.983" cy="1.983" fill="url(#white-stone-fill)" r="0.475"/>
</g>
<g>
<circle cx="3.025" cy="1.025" fill="black" fill-opacity="0.5" r="0.475"/>
<circle cx="2.983" cy="0.983" fill="url(#black-stone-fill)" r="0.475"/>
</g>
<g>
<circle cx="2.025" cy="2.025" fill="black" fill-opacity="0.5" r="0.475"/>
<circle cx="1.983" cy="1.983" fill="url(#black-stone-fill)" r="0.475"/>
</g>
</g>
<g id="markup-marks"/>
<g id="markup-triangles"/>
<g id="markup-circles"/>
<g id="markup-squares"/>
<g id="markup-selected"/>
<g id="markup-dimmed"/>
<g id="markup-labels"/>
<g id="markup-lines" marker-end="url(#linehead)" marker-start="url(#linehead)" stroke="black" stroke-width="0.03"/>
<g id="markup-arrows" marker-end="url(#arrowhead)" stroke="black" stroke-width="0.03"/>
</g>
</g>
<g fill="#6e5840" id="board-labels" transform="translate(0.8, 0.8)">
<g text-anchor="middle">
<text x="0.64" y="0">
A
</text>
<text x="1.6400000000000001" y="0">
B
</text>
<text x="2.64" y="0">
C
</text>
<text x="3.64" y="0">
D
</text>
<text x="4.64" y="0">
E
</text>
<text x="5.64" y="0">
F
</text>
<text x="6.64" y="0">
G
</text>
</g>
<g text-anchor="end">
<text dy="0.35em" x="0" y="5.64">
14
</text>
<text dy="0.35em" x="0" y="4.64">
15
</text>
<text dy="0.35em" x="0" y="3.64">
16
</text>
<text dy="0.35em" x="0" y="2.64">
17
</text>
<text dy="0.35em" x="0" y="1.6400000000000001">
18
</text>
<text dy="0.35em" x="0" y="0.64">
19
</text>
</g>
</g>
</g>
</svg>